<svg width="200" height="200" viewBox="0 0 200 200" fill="none" xmlns="http://www.w3.org/2000/svg">
  <!-- QR Code Border -->
  <rect x="10" y="10" width="180" height="180" rx="5" fill="white" stroke="black" stroke-width="2"/>
  
  <!-- QR Code Pattern -->
  <!-- Position Detection Pattern (Top Left) -->
  <rect x="30" y="30" width="40" height="40" fill="black"/>
  <rect x="40" y="40" width="20" height="20" fill="white"/>
  
  <!-- Position Detection Pattern (Top Right) -->
  <rect x="130" y="30" width="40" height="40" fill="black"/>
  <rect x="140" y="40" width="20" height="20" fill="white"/>
  
  <!-- Position Detection Pattern (Bottom Left) -->
  <rect x="30" y="130" width="40" height="40" fill="black"/>
  <rect x="40" y="140" width="20" height="20" fill="white"/>
  
  <!-- QR Code Data Pattern (simplified) -->
  <rect x="90" y="30" width="10" height="10" fill="black"/>
  <rect x="110" y="50" width="10" height="10" fill="black"/>
  <rect x="90" y="70" width="10" height="10" fill="black"/>
  <rect x="70" y="90" width="10" height="10" fill="black"/>
  <rect x="130" y="90" width="10" height="10" fill="black"/>
  <rect x="90" y="110" width="10" height="10" fill="black"/>
  <rect x="110" y="130" width="10" height="10" fill="black"/>
  <rect x="130" y="150" width="10" height="10" fill="black"/>
  <rect x="90" y="150" width="10" height="10" fill="black"/>
  <rect x="50" y="110" width="10" height="10" fill="black"/>
  <rect x="150" y="110" width="10" height="10" fill="black"/>
  <rect x="150" y="70" width="10" height="10" fill="black"/>
  <rect x="50" y="70" width="10" height="10" fill="black"/>
  
  <!-- Luxora Logo in center -->
  <text x="100" y="105" font-family="Arial" font-size="12" text-anchor="middle" fill="black">LUXORA</text>
</svg> 